<?xml version="1.0" encoding="UTF-8"?>
<svg id="Calque_2" data-name="Calque 2" xmlns="http://www.w3.org/2000/svg" viewBox="0 0 221.76 65.66">
  <defs>
    <style>
      .cls-1 {
        fill: #f4f2f2;
        stroke-width: 0px;
      }
    </style>
  </defs>
  <g id="Calque_1-2" data-name="Calque 1">
    <g>
      <rect class="cls-1" x="104.25" y="16.73" width="7.75" height="47.95"/>
      <g>
        <polygon class="cls-1" points="86 55.39 89.53 16.38 81.75 16.38 78.22 55.39 86 55.39"/>
        <path class="cls-1" d="m76.67,57.29c-.81.11-1.75.17-2.68.2h0c-.46,0-.99,0-1.57.01-.27,0-.63.01-1.04.01-.42,0-.78,0-1.05-.01-.58-.01-1.11-.02-1.57-.02h0c-1.58-.04-3.2-.18-4.1-.49l-3.67-40.61h-7.78l3.88,42.87.11.36c1.49,5.1,7.89,5.66,13.1,5.66.37,0,.73,0,1.08,0,.35,0,.71,0,1.08,0,1.36,0,2.81-.04,4.22-.19v-7.79Z"/>
      </g>
      <path class="cls-1" d="m31.74,16.74H10.63c-.12,0-.24.01-.36.02v7.77c.12-.02.24-.04.36-.04h21.11c1.59,0,2.88,1.29,2.88,2.88v27.66c0,1.59-1.29,2.88-2.88,2.88H10.63c-1.59,0-2.88-1.29-2.88-2.88v-27.66c0-.12.02-.24.04-.36H.02c0,.12-.02.24-.02.36v27.66c0,5.86,4.77,10.63,10.63,10.63h21.11c5.86,0,10.63-4.77,10.63-10.63v-27.66c0-5.86-4.77-10.63-10.63-10.63Z"/>
      <path class="cls-1" d="m159.65,0v17.15c-.92-.26-1.88-.41-2.88-.41h-21.11c-.12,0-.24.01-.36.02v7.77c.12-.02.24-.04.36-.04h21.11c1.59,0,2.88,1.29,2.88,2.88v27.66c0,1.59-1.29,2.88-2.88,2.88h-21.11c-1.59,0-2.88-1.29-2.88-2.88v-27.66c0-.12.02-.24.04-.36h-7.77c0,.12-.02.24-.02.36v27.66c0,5.86,4.77,10.63,10.63,10.63h21.11c5.86,0,10.63-4.77,10.63-10.63V0h-7.75Z"/>
      <g>
        <path class="cls-1" d="m189.66,57.88v7.77c.12,0,.24.02.36.02h27.87v-7.75h-27.87c-.12,0-.24-.02-.36-.04Z"/>
        <path class="cls-1" d="m211.13,16.74h-21.11c-5.86,0-10.63,4.77-10.63,10.63v27.66c0,.12.01.24.02.36h7.77c-.02-.12-.04-.24-.04-.36v-11.8c.92.26,1.88.41,2.88.41h21.11c5.86,0,10.63-4.77,10.63-10.63v-5.64c0-5.86-4.77-10.63-10.63-10.63Zm2.88,16.27c0,1.59-1.29,2.88-2.88,2.88h-21.11c-1.59,0-2.88-1.29-2.88-2.88v-5.64c0-1.59,1.29-2.88,2.88-2.88h21.11c1.59,0,2.88,1.29,2.88,2.88v5.64Z"/>
      </g>
    </g>
  </g>
</svg>